<?xml version="1.0" encoding="utf-8"?>
<!-- Generator: Adobe Illustrator 19.0.0, SVG Export Plug-In . SVG Version: 6.00 Build 0)  -->
<svg version="1.1" id="Squared_Logo_Black_xA0_Image_1_"
	 xmlns="http://www.w3.org/2000/svg" xmlns:xlink="http://www.w3.org/1999/xlink" x="0px" y="0px" viewBox="0 0 432 408"
	 style="enable-background:new 0 0 432 408;" xml:space="preserve">
<g transform="translate(-216, -204)">
	<path d="M431.6,0.2c1.7,25.1,0,50.9,0,76c0,43.2,0,86.5,0,129.7c0,32.8,1.4,65.5,0.4,98.3c-0.8,27.8-4.5,57.1-24.8,78.1
		c-18.3,18.9-46.2,24.8-72.5,25.8c-26.3,0.9-54.3-2.7-74.8-19.2c-12.6-10-21.4-24.2-26.9-39.2c-5.6-15.2-9.5-33.6-9.5-49.7
		c0-5.5,0-10.9,0-16.5c11.4,0,22.9,0,34.5,0c0,1.4,0,2.9,0,4.3c0.6,14,1.2,28.9,4.7,42.6c3.3,13.4,9.9,26.3,20.7,34.9
		c13.3,10.7,31.3,13.5,48.4,13.1c16.3-0.3,33.5-3.6,45.4-14.8c12-11.4,16.1-28.7,18.1-45.1c2.5-20.2,1.9-40.5,1.9-60.8
		c0-20.8,0-41.6,0-62.4c0-41.6,0-83.1,0-124.7c0-11.4,0-22.9,0-34.3c0-0.5,0-1,0-1.5c-120.9,0-241.8,0-362.8,0
		c0,112.5,0,225.1,0,337.8c61.4,0,122.8,0,184.2,0c0,11.9,0,23.6,0,35.5c-72.9,0-145.9,0-218.8,0c0-136,0-272,0-408
		C143.6,0.2,287.6,0.2,431.6,0.2z"/>
</g>
</svg>
