<?xml version="1.0" standalone="no"?>
<!DOCTYPE svg PUBLIC "-//W3C//DTD SVG 20010904//EN"
 "http://www.w3.org/TR/2001/REC-SVG-20010904/DTD/svg10.dtd">
<svg version="1.0" xmlns="http://www.w3.org/2000/svg"
 width="864.000000pt" height="864.000000pt" viewBox="0 0 864.000000 864.000000"
 preserveAspectRatio="xMidYMid meet">
<metadata>
Created by potrace 1.11, written by Peter Selinger 2001-2013
</metadata>
<g transform="translate(0.000000,864.000000) scale(0.100000,-0.100000)"
fill="#000000" stroke="none">
<path d="M0 4319 l0 -4079 2188 0 2187 0 -2 333 c-1 182 -2 342 -2 354 l-1 22
-1836 0 c-1010 0 -1838 2 -1841 5 -10 10 -8 6746 2 6749 6 2 1639 3 3630 2
l3619 -1 0 -2549 c0 -2528 -3 -2779 -28 -3030 -12 -123 -15 -147 -26 -205 -6
-33 -8 -64 -5 -69 3 -5 2 -11 -3 -13 -4 -1 -15 -39 -25 -83 -9 -44 -20 -91
-23 -104 -3 -13 -9 -32 -15 -43 -5 -10 -8 -18 -5 -18 7 0 -53 -150 -82 -205
-71 -135 -160 -242 -267 -320 -67 -49 -235 -142 -235 -130 0 3 -12 -1 -27 -9
-33 -16 -221 -65 -278 -71 -22 -2 -60 -7 -85 -11 -95 -14 -530 -7 -589 10 -9
3 -36 8 -61 11 -24 4 -48 9 -52 12 -5 2 -21 7 -36 9 -93 16 -268 94 -374 165
-71 48 -258 231 -258 253 0 2 -16 27 -35 56 -59 88 -153 303 -169 387 -2 10
-9 36 -15 59 -12 44 -30 132 -36 177 -2 15 -7 47 -11 70 -10 66 -13 101 -29
297 -12 158 -18 333 -12 363 3 15 -221 23 -502 19 l-193 -3 5 -272 c3 -150 7
-285 10 -302 3 -16 8 -57 11 -90 4 -33 11 -78 16 -100 5 -22 7 -41 5 -44 -3
-2 0 -10 6 -18 6 -7 9 -13 6 -13 -4 0 2 -31 28 -140 27 -113 61 -222 102 -335
41 -111 53 -137 161 -350 9 -16 18 -32 22 -35 3 -3 17 -23 30 -45 13 -22 26
-42 29 -45 4 -3 26 -32 51 -65 57 -75 205 -227 214 -218 3 3 6 1 6 -4 0 -6 24
-28 53 -49 28 -21 54 -42 55 -46 2 -5 8 -8 14 -8 5 0 28 -12 51 -27 68 -45 79
-51 137 -79 55 -27 221 -93 250 -100 8 -2 33 -8 55 -14 22 -6 47 -13 55 -15 8
-2 15 -4 15 -5 0 -1 9 -3 20 -5 11 -1 34 -6 50 -9 57 -13 200 -36 270 -43 91
-10 629 -10 720 0 156 17 211 24 270 37 22 5 56 12 75 15 19 3 56 12 83 20 26
8 47 11 47 8 0 -3 7 1 17 8 9 8 17 12 17 10 1 -5 87 18 121 33 17 8 41 17 55
21 28 9 107 42 130 55 8 5 35 19 60 31 206 103 408 292 545 508 27 43 116 216
122 236 1 6 20 62 42 126 22 64 42 127 44 140 3 13 10 42 15 64 11 42 19 86
27 145 3 19 7 45 10 57 6 24 17 110 20 158 1 17 3 30 4 30 11 0 24 6375 13
6425 -3 14 -453 16 -4318 16 l-4314 1 0 -4078z"/>
</g>
</svg>
